<svg id="Capa_1" enable-background="new 0 0 512 512" height="512" viewBox="0 0 512 512" width="512" xmlns="http://www.w3.org/2000/svg" xmlns:xlink="http://www.w3.org/1999/xlink"><linearGradient id="SVGID_1_" gradientUnits="userSpaceOnUse" x1="256" x2="256" y1="512" y2="0"><stop offset="0" stop-color="#a93aff"/><stop offset="1" stop-color="#ff81ff"/></linearGradient><g><g><path d="m437 302c-13.857 0-27.305 3.882-39.023 11.133l-199.11-199.11c7.237-11.718 11.133-25.18 11.133-39.023 0-41.353-33.633-75-75-75-36.65 0-67.266 26.44-73.74 61.26-34.805 6.474-61.26 37.075-61.26 73.74 0 41.353 33.633 75 75 75 13.857 0 27.305-3.882 39.023-11.133l199.109 199.109c-7.236 11.719-11.132 25.181-11.132 39.024 0 41.353 33.633 75 75 75 36.65 0 67.266-26.44 73.74-61.26 34.805-6.474 61.26-37.075 61.26-73.74 0-41.353-33.633-75-75-75z" fill="url(#SVGID_1_)"/></g></g></svg>